<?xml version="1.0" standalone="no"?>
<!DOCTYPE svg PUBLIC "-//W3C//DTD SVG 20010904//EN"
 "http://www.w3.org/TR/2001/REC-SVG-20010904/DTD/svg10.dtd">
<svg version="1.0" xmlns="http://www.w3.org/2000/svg"
 width="2000.000000pt" height="1025.000000pt" viewBox="0 0 2000.000000 1025.000000"
 preserveAspectRatio="xMidYMid meet">

<g transform="translate(0.000000,1025.000000) scale(0.100000,-0.100000)"
fill="#000000" stroke="none">
<path d="M1516 8498 c10 -17 1933 -2509 1949 -2526 10 -11 87 85 415 520 222
293 407 538 412 545 7 9 -155 225 -558 743 l-568 730 -828 0 c-661 0 -828 -3
-822 -12z"/>
<path d="M4795 7079 c-594 -787 -1081 -1435 -1083 -1439 -2 -5 178 -249 400
-544 222 -294 706 -938 1077 -1431 l675 -895 833 0 834 0 -169 222 c-93 123
-582 767 -1086 1432 l-916 1209 23 31 c13 17 501 662 1085 1433 584 771 1062
1405 1062 1408 0 3 -372 5 -827 5 l-828 0 -1080 -1431z"/>
<path d="M18089 7093 c0 -1008 -1 -1067 -17 -1043 -51 74 -164 200 -231 257
-183 156 -353 242 -586 294 -132 30 -445 38 -587 15 -646 -107 -1073 -626
-1198 -1461 -28 -182 -38 -590 -21 -797 29 -341 109 -645 234 -895 164 -325
449 -591 751 -698 167 -60 277 -78 476 -78 255 0 440 35 633 118 172 73 368
224 482 368 33 42 63 76 66 76 6 1 19 -277 19 -416 l0 -83 195 0 195 0 0 2705
0 2705 -205 0 -205 0 -1 -1067z m-903 -834 c181 -25 371 -103 512 -209 138
-104 236 -225 341 -422 l51 -95 0 -897 0 -897 -26 -52 c-122 -243 -324 -439
-554 -538 -182 -78 -329 -103 -568 -96 -196 5 -277 23 -417 92 -352 173 -571
555 -645 1125 -6 47 -14 177 -17 290 -19 665 131 1167 433 1450 143 133 296
210 487 245 90 16 300 19 403 4z"/>
<path d="M14313 7934 c-53 -19 -135 -107 -151 -161 -16 -52 -15 -154 0 -207
19 -63 100 -140 167 -160 150 -44 289 3 359 122 24 42 27 56 27 142 0 104 -9
129 -67 195 -51 59 -100 78 -203 82 -63 2 -103 -2 -132 -13z"/>
<path d="M9150 6616 c-302 -54 -518 -170 -726 -388 -249 -261 -404 -622 -471
-1098 -14 -101 -18 -193 -17 -475 0 -313 2 -365 22 -494 92 -588 324 -1006
697 -1261 248 -168 535 -237 876 -211 349 28 607 130 835 332 67 59 194 197
194 211 0 5 5 8 10 8 13 0 13 -380 0 -563 -35 -478 -232 -811 -581 -976 -166
-79 -323 -111 -548 -111 -375 0 -655 123 -943 412 l-126 128 -115 -123 -115
-122 32 -45 c17 -24 72 -85 121 -135 418 -419 1108 -578 1709 -394 578 177
930 654 986 1334 6 82 10 800 10 2021 l0 1894 -194 0 -195 0 -5 -52 c-3 -29
-9 -152 -13 -272 l-8 -220 -44 60 c-178 238 -385 395 -634 480 -154 53 -238
66 -467 70 -151 2 -237 -1 -290 -10z m642 -379 c335 -88 584 -299 744 -633
l44 -92 0 -876 0 -876 -36 -73 c-171 -340 -460 -557 -828 -622 -127 -22 -366
-20 -481 4 -474 98 -780 523 -867 1205 -17 133 -17 638 0 766 57 424 177 719
380 932 128 134 290 229 454 267 123 29 128 30 318 26 148 -2 190 -7 272 -28z"/>
<path d="M13165 6614 c-322 -58 -588 -251 -772 -558 l-50 -85 -7 61 c-3 33 -6
166 -6 294 l0 234 -205 0 -205 0 0 -1905 0 -1905 210 0 210 0 0 1319 0 1319
31 89 c69 197 199 401 321 504 122 104 275 184 424 221 77 19 115 23 279 23
105 0 211 -3 236 -7 l46 -7 8 185 c4 103 3 190 -2 195 -37 37 -361 51 -518 23z"/>
<path d="M14220 4655 l0 -1905 210 0 210 0 0 1905 0 1905 -210 0 -210 0 0
-1905z"/>
<path d="M2493 4053 c-538 -697 -979 -1270 -981 -1275 -2 -4 369 -8 825 -8
l829 0 568 731 c387 499 564 734 558 742 -5 7 -190 252 -411 545 -221 292
-404 532 -406 532 -2 0 -444 -570 -982 -1267z"/>
</g>
</svg>
